/* XPM */
static char * eureka_icon_xpm[] = {
"32 32 21 1",
" 	c None",
".	c #050401",
"+	c #160602",
"@	c #101310",
"#	c #271107",
"$	c #1C211E",
"%	c #391C0D",
"&	c #4B2815",
"*	c #63341B",
"=	c #36443F",
"-	c #8B4B28",
";	c #4C625B",
">	c #B26035",
",	c #6A867A",
"'	c #D77540",
")	c #EF8347",
"!	c #82A192",
"~	c #9CC1B0",
"{	c #ACD2C1",
"]	c #ADDBC8",
"^	c #B4E2CF",
"{{{{{{{{{{{{{{{{{{{{{{{{{{{{{{{{",
"{{{{{{{{{{{{{{{{{{{{{{{{{{{{{{{{",
"{{{{{{{{{{{{{{{{{{{]^^^^^^{{{{{{",
"{{{{{{{{{{{{{]]]]]];.@@@@@~{{{{{",
"{{{{{{{{{{{~~;...++#%&&**#@~{{{{",
"{{{{{{{{{],$#&->>'))))))))+;]{{{",
"{{{{{{{{{{.-'))))))))))))'.;]{{{",
"{{{{{{{{^@%)))))'>-*&%%##+${{{{{",
"{{{{{{{{].>))>%.@@@@@@@=!]]{{{{{",
"{{{{{{{]=+))>.=,^^^^^^^]]{{{{{{{",
"{{{{{{{^=-))*.^]{{{{{{{{{{{{{{{{",
"{{{{{{{,.')'#~]]]]]]]{{{{{{{{{{{",
"{{{{{{],%')>.!...+++.~{{{{{{{{{{",
"{{{{{{{;-))-%&*->'))*.^{{{{{{{{{",
"{{{{{{~.>))'')))))))*.^{{{{{{{{{",
"{{{{{{~+>)))))))))'*.!]{{{{{{{{{",
"{{{{{{~%')'>>>>-*%..,{{{{{{{{{{{",
"{{{{{];*))&@======,^]{{{{{{{{{{{",
"{{{{{].-))+;^]]]]]]{{{{{{{{{{{{{",
"{{{{{].>)'@]{{{{{{{{{{{{{{{{{{{{",
"{{{{{]+')>@^{{{{{{{{{{{{{{{{{{{{",
"{{{{{]+))*@^{{{{{{{{{]]]]{{{{{{{",
"{{{{]=#))*@^{{{{{{]^^!===^{{{{{{",
"{{{{^.&))&@^{{]]]^;.@.%*&@^{{{{{",
"{{{{^@&))&@{~~=..+#*>')))+^{{{{{",
"{{{{^.&))>%#%%*->'))))))>.^{{{{{",
"{{{{]=#)))'''))))))))>-*.,]{{{{{",
"{{{{{{.-)))))))))'-&+..=~{{{{{{{",
"{{{{{]$.%->>>>-&+@@.,]]]{{{{{{{{",
"{{{{{{^!=========]^^]{{{{{{{{{{{",
"{{{{{{{]]]]]]]]]]{{{{{{{{{{{{{{{",
"{{{{{{{{{{{{{{{{{{{{{{{{{{{{{{{{"};
