/* XPM */
static const char * logo_E4_32x32_xpm[] = {
"32 32 33 1",
" 	c None",
".	c #310A0C",
"+	c #5D0904",
"@	c #211B16",
"#	c #102025",
"$	c #002E54",
"%	c #841606",
"&	c #1B3A3E",
"*	c #295258",
"=	c #C83326",
"-	c #9E3E3A",
";	c #9B4B0E",
">	c #5E5E5C",
",	c #3A7078",
"'	c #E14B0E",
")	c #816728",
"!	c #BE5E59",
"~	c #8E7577",
"{	c #807B68",
"]	c #FD5D51",
"^	c #3F909C",
"/	c #678E96",
"(	c #D7963C",
"_	c #62B2C0",
":	c #F29A42",
"<	c #83B1B7",
"[	c #FF9B2F",
"}	c #A9ABA8",
"|	c #FDB44A",
"1	c #79E0EB",
"2	c #FFCB51",
"3	c #C7E1E9",
"4	c #FBE849",
"                                ",
"                                ",
"      3<<<<<//<//</<//</@@@     ",
"      >,***,&***,,*##&*#,<>     ",
"      >,&*#&&*&**,*,&&,*,,!     ",
"      @***&@*@,/,>>,,,,,,*-     ",
"      {*****^!    .~~~ ~>>-     ",
"      >,,*,,&-                  ",
"      >**_#,_=                  ",
"      >^&&^^^'                  ",
"      >/*_&,^,&@@,&@&%          ",
"      >/_^&_*,,,^^_11]          ",
"      >,,/__&*,1^,,**=          ",
"      >/*,#,1_,,^^^^^%          ",
"      >/*&&#&]%.+-+...          ",
"      >*&&#*^-                  ",
"      >*&*,,*-      +++++%+     ",
"      >*^_*$$%     |2|:::|'     ",
"      >_*$*)|[   %':::::::'     ",
"      >^{:':|' ':|(((((::|'     ",
"      %2|;|:(:22|||(|||::4[     ",
"      %|:::(:(((((((:|||[;      ",
"      %|:[::(|||||:||4|         ",
"      %2|||:(:|||224;           ",
"      %2|((((|(:24%             ",
"      %22:[[224(                ",
"      %2|(||4;                  ",
"      %2244)                    ",
"      244                       ",
"     )(                         ",
"                                ",
"                                "};
